# xmcd
#
# Track frame offsets: 
#        150
#        12050
#        22737
#        30850
#        41100
#        51875
#        60812
#        73637
#        81837
#        90812
#
# Disc length: 1359 seconds
#
# Revision: 0
# Processed by: cddbd v1.5PL3 Copyright (c) Steve Scherf et al.
# Submitted via: ExactAudioCopy v0.95a3
#
DISCID=60054d0a
DTITLE=Roger Miller - Pure Country
DYEAR=2000
DGENRE=Country
TTITLE0=Walking In The Sunshine
TTITLE1=Kansas City Star
TTITLE2=Doo-Wacka-Doo
TTITLE3=Engine, Engine #9
TTITLE4=When Two Worlds Collide
TTITLE5=Billy Bayou
TTITLE6=The Last Word In Lonesome Is Me
TTITLE7=In The Summertime (You Don't Want My Love)
TTITLE8=My Uncle Used To Love Me But She Died
TTITLE9=King Of The Road
EXTD=
EXTT0=
EXTT1=
EXTT2=
EXTT3=
EXTT4=
EXTT5=
EXTT6=
EXTT7=
EXTT8=
EXTT9=
PLAYORDER=
